<?xml version="1.0" encoding="UTF-8"?> <svg opacity="0.19" xmlns="http://www.w3.org/2000/svg" width="430" height="237" viewBox="0 0 430 237" fill="none"><g clip-path="url(#clip0)"><path d="M44.8204 36.329C44.8204 29.0798 50.697 23.2031 57.9463 23.2031H402.451C409.701 23.2031 415.577 29.0798 415.577 36.329C415.577 43.5783 409.701 49.4549 402.451 49.4549H377.784C374.257 49.4549 371.398 52.3139 371.398 55.8405C371.398 59.3672 368.539 62.2261 365.013 62.2261H360.137C353.917 62.2261 348.876 67.268 348.876 73.4874V74.6425C348.876 81.4999 354.435 87.0589 361.292 87.0589H409.777C415.851 87.0589 420.775 91.9826 420.775 98.0563C420.775 104.13 415.851 109.054 409.777 109.054H366.094C360.412 109.054 355.806 113.66 355.806 119.342C355.806 125.023 360.412 129.629 366.094 129.629H374.096C384.088 129.629 392.188 137.73 392.188 147.722V150.222C392.188 158.833 399.169 165.814 407.781 165.814C416.392 165.814 423.373 172.795 423.373 181.407V185.26C423.373 196 414.667 204.706 403.928 204.706H345.03C337.583 204.706 330.918 209.324 328.301 216.295C325.685 223.267 319.019 227.885 311.573 227.885H146.875C139.558 227.885 133.053 223.224 130.7 216.295C128.347 209.367 121.843 204.706 114.525 204.706H62.3136C52.6524 204.706 44.8204 196.874 44.8204 187.213C44.8204 177.551 52.6524 169.719 62.3136 169.719H88.3026C91.2415 169.719 93.6239 167.337 93.6239 164.398C93.6239 161.459 91.2415 159.077 88.3026 159.077H41.1547C33.6108 159.077 27.4953 152.961 27.4953 145.417C27.4953 137.873 33.6108 131.758 41.1547 131.758H69.8096C77.0589 131.758 82.9355 125.881 82.9355 118.632C82.9355 111.383 88.8122 105.506 96.0615 105.506H146.915C149.853 105.506 152.236 103.124 152.236 100.185C152.236 97.2459 149.853 94.8635 146.915 94.8635H22.3556C12.7553 94.8635 4.97266 87.0809 4.97266 77.4805C4.97266 67.8802 12.7553 60.0976 22.3556 60.0976H113.131C116.07 60.0976 118.452 57.7151 118.452 54.7762C118.452 51.8374 116.07 49.4549 113.131 49.4549H57.9463C50.697 49.4549 44.8204 43.5783 44.8204 36.329Z" fill="#E4EBEF"></path><path d="M126.762 7.80469H236.626" stroke="#666666" stroke-width="2" stroke-miterlimit="10" stroke-linecap="round" stroke-linejoin="round"></path><path d="M244.629 4.14355L252.268 11.8312" stroke="#666666" stroke-width="2" stroke-miterlimit="10" stroke-linecap="round" stroke-linejoin="round"></path><path d="M251.905 4.14355L244.266 11.8312" stroke="#666666" stroke-width="2" stroke-miterlimit="10" stroke-linecap="round" stroke-linejoin="round"></path><path d="M128.319 144.078H55.2266C50.8083 144.078 47.2266 147.66 47.2266 152.078V196.981C47.2266 200.294 49.9129 202.981 53.2266 202.981H136.319V152.078C136.319 147.66 132.737 144.078 128.319 144.078Z" fill="white"></path><path d="M82.3361 211.666V203.736H106.874V236.586H51.7578V217.329H73.6534V211.666H82.3361Z" fill="white"></path><path d="M135.983 203.194H52.0926C49.3676 203.194 47.2266 201.045 47.2266 198.311V145.186C47.2266 142.451 49.3676 140.303 52.0926 140.303H135.983C138.708 140.303 140.849 142.451 140.849 145.186V198.311C140.849 201.045 138.708 203.194 135.983 203.194Z" stroke="#666666" stroke-width="2" stroke-miterlimit="10" stroke-linecap="round" stroke-linejoin="round"></path><path d="M121.593 152.476H55.5117V193.08H127.593V158.476C127.593 155.162 124.906 152.476 121.593 152.476Z" fill="#40BFEF"></path><path d="M131.894 148.506H55.7891V193.233H131.894V148.506Z" stroke="#666666" stroke-width="2" stroke-miterlimit="10" stroke-linecap="round" stroke-linejoin="round"></path><path d="M62.4102 163.065L68.8333 156.619" stroke="#666666" stroke-width="2" stroke-miterlimit="10" stroke-linecap="round" stroke-linejoin="round"></path><path d="M80.7064 156.619L62.4102 174.979" stroke="#666666" stroke-width="2" stroke-miterlimit="10" stroke-linecap="round" stroke-linejoin="round"></path><path d="M135.594 217.452H51.8984V236.398H135.594V217.452Z" stroke="#666666" stroke-width="2" stroke-miterlimit="10" stroke-linecap="round" stroke-linejoin="round"></path><path d="M73.5039 216.476V211.983H82.4574V203.39" stroke="#666666" stroke-width="2" stroke-miterlimit="10" stroke-linecap="round" stroke-linejoin="round"></path><path d="M104.645 203.39V211.788" stroke="#666666" stroke-width="2" stroke-miterlimit="10" stroke-linecap="round" stroke-linejoin="round"></path><path d="M91.0195 211.983H114.571V216.476" stroke="#666666" stroke-width="2" stroke-miterlimit="10" stroke-linecap="round" stroke-linejoin="round"></path><path d="M60.8516 224.874H70.5836" stroke="#666666" stroke-width="2" stroke-miterlimit="10" stroke-linecap="round" stroke-linejoin="round"></path><path d="M124.501 230.148C126.221 230.148 127.615 228.748 127.615 227.023C127.615 225.297 126.221 223.897 124.501 223.897C122.781 223.897 121.387 225.297 121.387 227.023C121.387 228.748 122.781 230.148 124.501 230.148Z" stroke="#666666" stroke-width="2" stroke-miterlimit="10" stroke-linecap="round" stroke-linejoin="round"></path><path d="M65.4815 241.592C65.4815 241.592 64.0264 229.878 70.5746 224.753C77.1228 219.627 82.2159 221.092 82.2159 221.092C82.2159 221.092 82.9434 211.061 90.9468 208.352C98.9502 205.716 103.316 208.645 103.316 208.645C103.316 208.645 106.735 188.364 129.8 188.95C152.791 189.609 153.519 211.574 153.519 211.574C153.519 211.574 162.803 203.854 174.816 208.411C181.859 211.083 185.587 215.869 188.073 223.327C197.562 221.54 202.817 222.273 211.685 226.642C218.613 221.897 224.942 211.574 224.942 193.495H230.385L230.741 241.592H65.4815Z" fill="white"></path><path d="M232.814 193.495H230.328V236.172H390.5C389.5 225.399 389 215.434 375 209C361 202.567 352.886 204.962 347.5 208C345.015 204.686 329.336 190.18 316.08 198.467C305.475 205.097 303.928 217.25 304.48 222.499C302.547 219.46 296.609 213.218 288.324 212.555C280.039 211.892 274.101 217.527 272.168 220.427C270.097 218.493 264.132 214.875 256.841 215.869C249.55 216.864 245.241 222.637 243.999 225.399C235.382 216.781 232.952 200.539 232.814 193.495Z" fill="white"></path><path d="M364.999 215.001C364.999 215.001 370.999 214.501 375.499 219.001C379.999 223.501 380.021 229.201 380.021 229.201" stroke="#666666" stroke-width="2" stroke-miterlimit="10" stroke-linecap="round" stroke-linejoin="round"></path><path d="M65.4805 234.987C65.4805 234.987 65.4805 229.13 70.5735 224.737C75.6666 220.344 82.2148 221.076 82.2148 221.076C82.2148 221.076 82.9424 211.558 90.2182 208.63C96.8392 205.921 105.497 206.433 109.863 214.487" stroke="#666666" stroke-width="2" stroke-miterlimit="10" stroke-linecap="round" stroke-linejoin="round"></path><path d="M103.605 208.19C103.969 204.163 111.318 185.2 135.328 189.593C152.208 192.668 153.518 211.558 153.518 211.558C166.116 201.782 185.172 208.19 187.657 223.742C192.076 222.361 203.068 221.007 211.684 226.642C214.722 225.528 224.94 216.698 224.94 193.495" stroke="#666666" stroke-width="2" stroke-miterlimit="10" stroke-linecap="round" stroke-linejoin="round"></path><path d="M155.98 169.491H180.394" stroke="#666666" stroke-width="2" stroke-miterlimit="10" stroke-linecap="round" stroke-linejoin="round"></path><path d="M153.277 203.21L140.02 236.172H196.081L183.202 203.21C179.414 201.695 171.838 201.695 166.535 204.726C162.293 207.15 155.929 204.726 153.277 203.21Z" fill="#40BFEF"></path><path d="M158.799 169.491V189.528L140.02 236.172H196.359L177.579 189.153V169.491" stroke="#666666" stroke-width="2" stroke-miterlimit="10" stroke-linecap="round" stroke-linejoin="round"></path><path d="M166.518 178.854H159.613" stroke="#666666" stroke-width="2" stroke-miterlimit="10" stroke-linecap="round" stroke-linejoin="round"></path><path d="M166.518 188.966H159.613" stroke="#666666" stroke-width="2" stroke-miterlimit="10" stroke-linecap="round" stroke-linejoin="round"></path><path d="M153.656 203.284C159.988 205.6 161.778 207.285 168.269 204.126C174.761 200.967 179.679 202.096 183.202 203.284" stroke="#666666" stroke-width="2" stroke-miterlimit="10" stroke-linecap="round" stroke-linejoin="round"></path><ellipse cx="176.475" cy="225.399" rx="4.14258" ry="4.14336" fill="white"></ellipse><ellipse cx="170.673" cy="217.941" rx="2.48555" ry="2.48601" fill="white"></ellipse><ellipse cx="175.645" cy="211.312" rx="1.65704" ry="1.65735" fill="white"></ellipse><path d="M232.812 195.981C233.503 202.196 237.038 219.101 243.997 225.399C246.483 217.527 260.154 210.897 272.167 220.427C277.138 210.897 294.951 207.997 304.479 222.913C303.236 215.041 306.965 201.368 320.221 196.81C336.377 191.255 346.319 201.368 346.319 201.368" stroke="#666666" stroke-width="2" stroke-linecap="round" stroke-linejoin="round"></path><path d="M117.141 201.308C117.141 201.308 122.961 196.915 133.875 199.111C141.878 200.722 144.789 207.897 144.789 207.897" stroke="#666666" stroke-width="2" stroke-miterlimit="10" stroke-linecap="round" stroke-linejoin="round"></path><path d="M336.793 209.654C345.501 204.5 358.545 202.572 370.501 207C384.001 212 390.501 221.5 390.501 235.5" stroke="#666666" stroke-width="2" stroke-linecap="round" stroke-linejoin="round"></path><path d="M325.43 193.074C332.491 193.074 338.215 187.324 338.215 180.233C338.215 173.141 332.491 167.392 325.43 167.392C318.369 167.392 312.645 173.141 312.645 180.233C312.645 187.324 318.369 193.074 325.43 193.074Z" fill="#40BFEF"></path><path d="M319.307 198.959C326.809 198.959 332.891 192.85 332.891 185.315C332.891 177.78 326.809 171.672 319.307 171.672C311.805 171.672 305.723 177.78 305.723 185.315C305.723 192.85 311.805 198.959 319.307 198.959Z" stroke="#666666" stroke-width="2" stroke-miterlimit="10" stroke-linecap="round" stroke-linejoin="round" stroke-dasharray="5.01 5.01"></path><path d="M276.723 236.171V175.678H307.427L317.32 185.645H357.917V236.171H276.723Z" fill="white"></path><path d="M290.809 203.853H301.579" stroke="#666666" stroke-width="2" stroke-miterlimit="10" stroke-linecap="round" stroke-linejoin="round"></path><path d="M294.121 198.881H326.433" stroke="#666666" stroke-width="2" stroke-miterlimit="10" stroke-linecap="round" stroke-linejoin="round"></path><path d="M304.062 203.853H309.862" stroke="#666666" stroke-width="2" stroke-miterlimit="10" stroke-linecap="round" stroke-linejoin="round"></path><path d="M293.293 210.482H300.75" stroke="#666666" stroke-width="2" stroke-miterlimit="10" stroke-linecap="round" stroke-linejoin="round"></path><path d="M304.062 210.482H333.889" stroke="#666666" stroke-width="2" stroke-miterlimit="10" stroke-linecap="round" stroke-linejoin="round"></path><path d="M294.121 216.283H310.691" stroke="#666666" stroke-width="2" stroke-miterlimit="10" stroke-linecap="round" stroke-linejoin="round"></path><path d="M313.176 216.283H321.461" stroke="#666666" stroke-width="2" stroke-miterlimit="10" stroke-linecap="round" stroke-linejoin="round"></path><path d="M294.121 222.912H300.749" stroke="#666666" stroke-width="2" stroke-miterlimit="10" stroke-linecap="round" stroke-linejoin="round"></path><path d="M304.062 222.912H342.174" stroke="#666666" stroke-width="2" stroke-miterlimit="10" stroke-linecap="round" stroke-linejoin="round"></path><path d="M276.723 236.171V179.678C276.723 177.469 278.514 175.678 280.723 175.678H306.594C307.127 175.678 307.638 175.891 308.013 176.269L316.733 185.054C317.109 185.433 317.62 185.645 318.153 185.645H353.917C356.126 185.645 357.917 187.436 357.917 189.645V236.171H276.723Z" stroke="#666666" stroke-width="2" stroke-miterlimit="10" stroke-linecap="round" stroke-linejoin="round"></path><path d="M298.863 175.678V155.79H338.713L349.634 165.734V185.622" stroke="#666666" stroke-width="2" stroke-miterlimit="10" stroke-linecap="round" stroke-linejoin="round"></path><path d="M338.859 155.79V165.734H349.63" fill="#40BFEF"></path><path d="M338.859 155.79V165.734H349.63L338.859 155.79Z" stroke="#666666" stroke-width="2" stroke-miterlimit="10" stroke-linecap="round" stroke-linejoin="round"></path><path d="M345.093 90.5686C345.093 90.5686 351.86 90.5686 364.811 90.5686C377.761 90.5686 380.817 62.6001 360.518 63.259C360.518 63.259 359.281 53.9606 350.041 50.8123C340.8 47.7372 333.379 50.8123 330.905 52.6427C330.905 52.6427 331.896 31.4949 311.524 27.7609C291.151 24.0269 281.575 41.8483 281.575 48.323C276.312 42.2627 250.628 41.434 244.828 59.6648C245.526 60.9078 251.456 68.3658 251.871 69.6088L256.013 77.4812L259.327 84.1106L261.398 90.5607L287.542 90.4953H345.093V90.5686Z" fill="white"></path><path d="M315.068 97.209H305.07C303.113 97.209 301.52 95.6096 301.52 93.6467V83.6141C301.52 81.6512 303.113 80.0518 305.07 80.0518H315.068C317.024 80.0518 318.618 81.6512 318.618 83.6141V93.6467C318.618 95.6096 317.024 97.209 315.068 97.209Z" fill="#40BFEF" stroke="#666666" stroke-width="2" stroke-miterlimit="10" stroke-linecap="round" stroke-linejoin="round"></path><path d="M305.43 90.0117V92.9924H308.835" stroke="white" stroke-width="2" stroke-miterlimit="10" stroke-linecap="round" stroke-linejoin="round"></path><path d="M311.879 83.6865H314.922V86.8853" stroke="white" stroke-width="2" stroke-miterlimit="10" stroke-linecap="round" stroke-linejoin="round"></path><path d="M303.91 77.4347V73" stroke="#666666" stroke-width="2" stroke-miterlimit="10" stroke-linecap="round" stroke-linejoin="round"></path><path d="M308.109 77.4347V73" stroke="#666666" stroke-width="2" stroke-miterlimit="10" stroke-linecap="round" stroke-linejoin="round"></path><path d="M312.312 77.4347V73" stroke="#666666" stroke-width="2" stroke-miterlimit="10" stroke-linecap="round" stroke-linejoin="round"></path><path d="M316.516 77.4347V73" stroke="#666666" stroke-width="2" stroke-miterlimit="10" stroke-linecap="round" stroke-linejoin="round"></path><path d="M303.91 103.898V99.4629" stroke="#666666" stroke-width="2" stroke-miterlimit="10" stroke-linecap="round" stroke-linejoin="round"></path><path d="M308.109 103.898V99.4629" stroke="#666666" stroke-width="2" stroke-miterlimit="10" stroke-linecap="round" stroke-linejoin="round"></path><path d="M312.312 103.898V99.4629" stroke="#666666" stroke-width="2" stroke-miterlimit="10" stroke-linecap="round" stroke-linejoin="round"></path><path d="M316.516 103.898V99.4629" stroke="#666666" stroke-width="2" stroke-miterlimit="10" stroke-linecap="round" stroke-linejoin="round"></path><path d="M294 82.0205H298.419" stroke="#666666" stroke-width="2" stroke-miterlimit="10" stroke-linecap="round" stroke-linejoin="round"></path><path d="M294 86.165H298.419" stroke="#666666" stroke-width="2" stroke-miterlimit="10" stroke-linecap="round" stroke-linejoin="round"></path><path d="M294 90.3818H298.419" stroke="#666666" stroke-width="2" stroke-miterlimit="10" stroke-linecap="round" stroke-linejoin="round"></path><path d="M294 94.5977H298.419" stroke="#666666" stroke-width="2" stroke-miterlimit="10" stroke-linecap="round" stroke-linejoin="round"></path><path d="M322 82.0205H326.419" stroke="#666666" stroke-width="2" stroke-miterlimit="10" stroke-linecap="round" stroke-linejoin="round"></path><path d="M322 86.165H326.419" stroke="#666666" stroke-width="2" stroke-miterlimit="10" stroke-linecap="round" stroke-linejoin="round"></path><path d="M322 90.3818H326.419" stroke="#666666" stroke-width="2" stroke-miterlimit="10" stroke-linecap="round" stroke-linejoin="round"></path><path d="M322 94.5977H326.419" stroke="#666666" stroke-width="2" stroke-miterlimit="10" stroke-linecap="round" stroke-linejoin="round"></path><path d="M18.2266 236.171L397.296 236.171" stroke="#666666" stroke-width="2" stroke-miterlimit="10" stroke-linecap="round" stroke-linejoin="round"></path><path d="M402.66 236.171H437.458" stroke="#666666" stroke-width="2" stroke-miterlimit="10" stroke-linecap="round" stroke-linejoin="round"></path><path d="M384.058 186.108C384.058 186.108 373.436 177.176 374.891 166.926C376.346 156.676 384.349 150.818 384.349 150.818C384.349 150.818 393.808 159.604 393.808 167.658C393.808 175.712 384.058 186.108 384.058 186.108Z" fill="#40BFEF"></path><path d="M368.051 157.105C368.051 157.105 357.428 148.172 358.883 137.922C360.338 127.672 368.342 121.814 368.342 121.814C368.342 121.814 377.8 130.6 377.8 138.654C377.8 146.708 368.051 157.105 368.051 157.105Z" fill="#40BFEF"></path><path d="M367.859 206V122.644" stroke="#666666" stroke-width="2" stroke-miterlimit="10" stroke-linecap="round" stroke-linejoin="round"></path><path d="M384.43 216V150.818" stroke="#666666" stroke-width="2" stroke-miterlimit="10" stroke-linecap="round" stroke-linejoin="round"></path><path d="M358.883 139.386L368.05 147.953L377.8 138.654" stroke="#666666" stroke-width="2" stroke-miterlimit="10" stroke-linecap="round" stroke-linejoin="round"></path><path d="M361.066 130.601L368.051 137.629L374.89 130.601" stroke="#666666" stroke-width="2" stroke-miterlimit="10" stroke-linecap="round" stroke-linejoin="round"></path><path d="M368.051 157.105C368.051 157.105 357.428 148.172 358.883 137.922C360.338 127.672 368.342 121.814 368.342 121.814C368.342 121.814 377.8 130.6 377.8 138.654C377.8 146.708 368.051 157.105 368.051 157.105Z" stroke="#666666" stroke-width="2" stroke-miterlimit="10" stroke-linecap="round" stroke-linejoin="round"></path><path d="M374.891 168.389L384.058 176.956L393.808 167.657" stroke="#666666" stroke-width="2" stroke-miterlimit="10" stroke-linecap="round" stroke-linejoin="round"></path><path d="M377.07 159.604L384.055 166.632L390.894 159.604" stroke="#666666" stroke-width="2" stroke-miterlimit="10" stroke-linecap="round" stroke-linejoin="round"></path><path d="M384.058 186.108C384.058 186.108 373.436 177.176 374.891 166.926C376.346 156.676 384.349 150.818 384.349 150.818C384.349 150.818 393.808 159.604 393.808 167.658C393.808 175.712 384.058 186.108 384.058 186.108Z" stroke="#666666" stroke-width="2" stroke-miterlimit="10" stroke-linecap="round" stroke-linejoin="round"></path><path d="M165.3 59.6279L162.733 41.5787L147.969 43.6787L150.535 61.7279" stroke="#666666" stroke-width="2" stroke-miterlimit="10" stroke-linecap="round" stroke-linejoin="round"></path><path d="M146.49 66.6067C149.335 65.288 151.204 62.3343 150.36 60.4981C149.517 58.6618 146.282 58.6385 143.437 59.9571C140.592 61.2758 138.969 63.8333 139.812 65.6695C140.655 67.5057 143.645 67.9253 146.49 66.6067Z" fill="white" stroke="#666666" stroke-width="2" stroke-miterlimit="10" stroke-linecap="round" stroke-linejoin="round"></path><path d="M161.098 64.3286C164.073 62.9499 165.885 60.097 165.059 58.2975C164.233 56.498 161.08 56.4333 158.105 57.8121C155.13 59.1909 153.389 61.7674 154.215 63.5669C155.042 65.3664 158.123 65.7074 161.098 64.3286Z" fill="white" stroke="#666666" stroke-width="2" stroke-miterlimit="10" stroke-linecap="round" stroke-linejoin="round"></path><path d="M261.812 90.3252L287.497 90.3252" stroke="#666666" stroke-width="2" stroke-miterlimit="10" stroke-linecap="round" stroke-linejoin="round"></path><path d="M333.062 90.3252L349.633 90.3252" stroke="#666666" stroke-width="2" stroke-miterlimit="10" stroke-linecap="round" stroke-linejoin="round"></path><path d="M335 106H372.107" stroke="#666666" stroke-width="2" stroke-miterlimit="10" stroke-linecap="round" stroke-linejoin="round"></path><path d="M376.473 106H383.021" stroke="#666666" stroke-width="2" stroke-miterlimit="10" stroke-linecap="round" stroke-linejoin="round"></path><path d="M357.97 90.5682C357.97 90.5682 365.973 90.5682 381.252 90.5682C396.531 90.5682 400.169 57.6211 376.159 58.3532C376.159 58.3532 374.704 47.3708 363.79 43.71C352.876 40.0492 344.145 43.71 341.235 45.9065C341.235 45.9065 342.69 23.9417 318.68 19.5488C294.67 15.1558 282.423 34.0156 281.695 40.605" stroke="#666666" stroke-width="2" stroke-miterlimit="10" stroke-linecap="round" stroke-linejoin="round"></path><path d="M243.168 57.5928C246.896 45.5771 256.838 39.7764 270.509 39.7764C284.18 39.7764 289.565 47.6487 289.565 47.6487" stroke="#666666" stroke-width="2" stroke-miterlimit="10" stroke-linecap="round" stroke-linejoin="round"></path><path d="M298.309 34.9241C298.309 34.9241 306.312 29.799 317.226 31.9955C328.139 34.1919 331.05 42.2457 331.05 42.2457" stroke="#666666" stroke-width="2" stroke-miterlimit="10" stroke-linecap="round" stroke-linejoin="round"></path><path d="M358.746 19.2861H369.514" stroke="#666666" stroke-width="2" stroke-miterlimit="10" stroke-linecap="round" stroke-linejoin="round"></path><path d="M363.84 14.0879V24.9971" stroke="#666666" stroke-width="2" stroke-miterlimit="10" stroke-linecap="round" stroke-linejoin="round"></path><path d="M119 114L127 122" stroke="#666666" stroke-width="2" stroke-miterlimit="10" stroke-linecap="round" stroke-linejoin="round"></path><path d="M127 114L119 122" stroke="#666666" stroke-width="2" stroke-miterlimit="10" stroke-linecap="round" stroke-linejoin="round"></path><path d="M86.4336 74.8066H97.2018" stroke="#666666" stroke-width="2" stroke-miterlimit="10" stroke-linecap="round" stroke-linejoin="round"></path><path d="M91.5273 69.6084V80.5176" stroke="#666666" stroke-width="2" stroke-miterlimit="10" stroke-linecap="round" stroke-linejoin="round"></path><path d="M77.85 74.7334H70.5742" stroke="#666666" stroke-width="2" stroke-miterlimit="10" stroke-linecap="round" stroke-linejoin="round"></path><path d="M66.9347 74.7334H29.8281" stroke="#666666" stroke-width="2" stroke-miterlimit="10" stroke-linecap="round" stroke-linejoin="round"></path><path d="M161.524 90.5682C163.131 90.5682 164.434 89.257 164.434 87.6396C164.434 86.0221 163.131 84.7109 161.524 84.7109C159.916 84.7109 158.613 86.0221 158.613 87.6396C158.613 89.257 159.916 90.5682 161.524 90.5682Z" stroke="#666666" stroke-width="2" stroke-miterlimit="10" stroke-linecap="round" stroke-linejoin="round"></path><path d="M67.8991 114.317C69.7073 114.317 71.1732 112.842 71.1732 111.022C71.1732 109.203 69.7073 107.728 67.8991 107.728C66.0909 107.728 64.625 109.203 64.625 111.022C64.625 112.842 66.0909 114.317 67.8991 114.317Z" stroke="#666666" stroke-width="2" stroke-miterlimit="10" stroke-linecap="round" stroke-linejoin="round"></path><path d="M251.483 147.498L211.326 162.351C211.069 173.531 218.82 187.227 235.006 179.985C248.494 173.949 248.996 158.699 251.483 147.498Z" fill="white"></path><path d="M241.077 155.771L211.585 165.367C210.788 174.472 215.57 186.131 227.526 181.238C237.49 177.161 238.685 164.752 241.077 155.771Z" fill="#40BFEF"></path><path d="M275.087 156.879C275.087 130.256 266.707 118.669 262.517 116.204C262.024 118.423 260.817 123.895 259.929 128.037C259.042 132.178 255.616 138.884 254.014 141.719L275.087 156.879Z" fill="white"></path><path d="M187.837 130.995C189.316 137.503 192.889 143.568 194.491 145.786L178.594 156.879C176.228 147.709 176.869 136.295 177.485 131.735C179.26 124.635 184.14 119.902 186.358 118.423C186.235 119.902 186.358 124.487 187.837 130.995Z" fill="white"></path><path d="M257.344 108.453C257.344 128.119 248.782 142.193 248.782 142.001L247.236 144.324L210.246 158.729L204.907 149.631C204.907 149.631 190.797 128.783 190.797 105.815C190.797 88.2696 198.575 73.1705 216.673 55.6256C220.37 51.9624 226.598 52.1552 230.489 55.8184C246.447 71.2425 257.344 88.7874 257.344 108.453Z" fill="white"></path><path d="M263.091 105.448C285.484 118.348 275.117 156.839 275.117 156.839L253.968 141.65C253.968 141.858 263.091 126.67 263.091 105.448ZM263.091 105.448C263.091 84.2261 251.48 65.2928 234.478 48.6481C230.331 44.6949 223.696 44.4869 219.757 48.44C200.474 67.3734 190.729 86.3067 190.729 105.24C190.729 126.462 199.668 142.089 199.668 142.089L178.703 156.839C178.703 156.839 169.58 123.549 190.729 105.448" stroke="#666666" stroke-width="2" stroke-miterlimit="10" stroke-linecap="round" stroke-linejoin="round"></path><path d="M208.77 159.335L253.97 141.858" stroke="#666666" stroke-width="2" stroke-miterlimit="10" stroke-linecap="round" stroke-linejoin="round"></path><path d="M208.77 171.403L246.091 156.839" stroke="#666666" stroke-width="2" stroke-miterlimit="10" stroke-linecap="round" stroke-linejoin="round"></path><path d="M216.648 180.349L238.212 172.026" stroke="#666666" stroke-width="2" stroke-miterlimit="10" stroke-linecap="round" stroke-linejoin="round"></path><path d="M204.621 150.181C201.511 145.396 199.668 142.089 199.668 142.089" stroke="#666666" stroke-width="2" stroke-miterlimit="10" stroke-linecap="round" stroke-linejoin="round"></path><path d="M217.736 137.281L208.539 115.102L212.738 112.885L236.731 100.384C236.731 100.384 230.333 96.1497 220.136 99.1741C210.738 101.795 206.94 109.054 215.337 113.288C223.935 117.522 231.333 116.514 236.531 114.296C241.73 112.078 244.129 109.457 244.129 106.029L247.728 104.215L241.33 131.031" stroke="#40BFEF" stroke-width="5" stroke-miterlimit="10" stroke-linecap="round" stroke-linejoin="round"></path><path d="M216.44 137.489L206.902 114.602L211.256 112.314L236.137 99.4142C236.137 99.4142 229.503 95.045 218.928 98.1659C209.183 100.871 205.244 108.361 213.952 112.73C222.868 117.099 230.539 116.059 235.93 113.77C241.321 111.482 243.809 108.777 243.809 105.24L247.541 103.367L240.906 131.039" stroke="#666666" stroke-width="2" stroke-miterlimit="10" stroke-linecap="round" stroke-linejoin="round"></path><path d="M107.587 31.8823L109.76 28.1748L112.26 31.7733L116.389 32.7546L113.673 36.026L114.107 40.2787L109.978 38.9702L106.283 40.1696L106.066 36.3531L103.566 32.7546L107.587 31.8823Z" stroke="#666666" stroke-width="2" stroke-miterlimit="10" stroke-linecap="round" stroke-linejoin="round"></path><path d="M322.598 128.284L324.002 126L325.617 128.217L328.285 128.822L326.53 130.838L326.811 133.458L324.143 132.652L321.755 133.391L321.615 131.039L320 128.822L322.598 128.284Z" stroke="#666666" stroke-width="2" stroke-miterlimit="10" stroke-linecap="round" stroke-linejoin="round"></path><path d="M140.02 19.8877H209.14" stroke="#666666" stroke-width="2" stroke-miterlimit="10" stroke-linecap="round" stroke-linejoin="round"></path><path d="M215.688 19.8877H225.874" stroke="#666666" stroke-width="2" stroke-miterlimit="10" stroke-linecap="round" stroke-linejoin="round"></path></g><defs><clipPath id="clip0"><rect width="430" height="237" fill="white"></rect></clipPath></defs></svg>
