<svg width="15" height="25" viewBox="0 0 15 25" fill="none" xmlns="http://www.w3.org/2000/svg">
<path fill-rule="evenodd" clip-rule="evenodd" d="M7.36303 2.73973C6.2282 2.73973 5.30824 3.65969 5.30824 4.79452C5.30824 5.92935 6.2282 6.84931 7.36303 6.84931C8.49787 6.84931 9.41783 5.92935 9.41783 4.79452C9.41783 3.65969 8.49787 2.73973 7.36303 2.73973ZM2.56851 4.79452C2.56851 2.14658 4.71509 0 7.36303 0C10.011 0 12.1576 2.14658 12.1576 4.79452C12.1576 7.44246 10.011 9.58904 7.36303 9.58904C4.71509 9.58904 2.56851 7.44246 2.56851 4.79452Z" fill="#0082CA"/>
<path fill-rule="evenodd" clip-rule="evenodd" d="M2.15658 9.00588C3.53741 7.62505 5.41022 6.8493 7.36301 6.8493C9.31581 6.8493 11.1886 7.62505 12.5694 9.00588C13.9503 10.3867 14.726 12.2595 14.726 14.2123V16.7808C14.726 17.5374 14.1127 18.1507 13.3562 18.1507H11.997L11.2908 23.8C11.2051 24.4856 10.6224 25 9.93151 25H4.79452C4.10367 25 3.52093 24.4856 3.43524 23.8L2.72907 18.1507H1.36986C0.613309 18.1507 0 17.5374 0 16.7808V14.2123C0 12.2595 0.775744 10.3867 2.15658 9.00588ZM7.36301 9.58903C6.13684 9.58903 4.96089 10.0761 4.09386 10.9432C3.22682 11.8102 2.73973 12.9861 2.73973 14.2123V15.4109H3.93836C4.62921 15.4109 5.21195 15.9254 5.29764 16.6109L6.00381 22.2603H8.72222L9.42839 16.6109C9.51408 15.9254 10.0968 15.4109 10.7877 15.4109H11.9863V14.2123C11.9863 12.9861 11.4992 11.8102 10.6322 10.9432C9.76514 10.0761 8.58919 9.58903 7.36301 9.58903Z" fill="#0082CA"/>
</svg>
