<svg width="34" height="27" viewBox="0 0 34 27" fill="none" xmlns="http://www.w3.org/2000/svg">
<path d="M4 21.2293C4.5419 19.5358 4.5966 17.9088 4.5966 16.1471C4.5966 15.2927 4.5966 14.4383 4.5966 13.5839C4.5966 12.9886 3.97765 10.5767 5.30369 11.6284C6.55147 12.618 7.16887 14.1316 8.64025 14.6666C9.05381 14.817 9.57045 15.8472 10.0765 16.1692C10.8809 16.6811 11.5126 17.4092 12.3414 17.948C13.0874 18.4328 13.6654 19.1797 14.3522 19.7378C15.0511 20.3057 15.6619 21.2707 16.4292 21.7044C18.3042 22.7641 16.8207 21.1593 16.3298 20.4007C15.2085 18.6677 14.0422 16.976 12.927 15.2412C12.5037 14.5828 11.8936 14.1562 11.5128 13.4734C11.1604 12.8415 10.6218 12.1632 10.0655 11.6947C9.33356 11.0783 8.92843 10.2483 8.26461 9.58447C7.79536 9.11522 6.99227 8.31959 6.78415 7.69522C6.54096 6.96565 5.65248 6.2021 5.22635 5.56292C4.89552 5.06668 6.54405 5.44 6.78415 5.51872C7.80416 5.85315 8.86143 6.33211 9.81136 6.83346C11.516 7.73314 12.9727 8.30262 14.4737 9.56237C15.4779 10.4052 16.674 11.4135 17.8324 12.0372C19.7447 13.0669 20.9056 15.0704 22.34 16.6111C22.957 17.2737 23.3426 18.0316 24.0857 18.5998C24.6464 19.0286 25.2519 19.7864 25.9197 19.9919C26.9936 20.3223 26.2942 17.2222 26.2732 16.6553C26.2162 15.1174 25.6343 13.6525 25.08 12.236C24.6724 11.1943 24.2557 10.1082 23.8426 9.09835C23.4856 8.22578 23.48 7.31267 23.246 6.40258C22.9624 5.29982 21.624 4.65457 20.7049 4.17084C19.9572 3.77732 22.6369 4.17192 23.0471 4.28132C23.9605 4.5249 24.9673 4.361 25.8755 4.56858C26.5976 4.73364 27.2747 4.72325 28.0188 4.72325C28.6638 4.72325 29.0162 5.12099 29.654 5.12099" stroke="#999999" stroke-width="8" stroke-linecap="round"/>
</svg>
