<svg width="35" height="34" viewBox="0 0 35 34" fill="none" xmlns="http://www.w3.org/2000/svg">
<path d="M4.39011 6.61539C3.75621 6.61539 3.14828 6.85852 2.70005 7.29129C2.25181 7.72407 2 8.31104 2 8.92308V29.6923C2 30.3044 2.25181 30.8913 2.70005 31.3241C3.14828 31.7569 3.75621 32 4.39011 32H30.6813C31.3152 32 31.9231 31.7569 32.3714 31.3241C32.8196 30.8913 33.0714 30.3044 33.0714 29.6923V8.92308C33.0714 8.31104 32.8196 7.72407 32.3714 7.29129C31.9231 6.85852 31.3152 6.61539 30.6813 6.61539H25.9011" stroke="#0082CA" stroke-width="3" stroke-linecap="round" stroke-linejoin="round"/>
<path d="M9.17035 2V11.2308" stroke="#0082CA" stroke-width="3" stroke-linecap="round" stroke-linejoin="round"/>
<path d="M25.9011 2V11.2308" stroke="#0082CA" stroke-width="3" stroke-linecap="round" stroke-linejoin="round"/>
<path d="M9.17035 6.61539H21.1209" stroke="#0082CA" stroke-width="3" stroke-linecap="round" stroke-linejoin="round"/>
<path d="M9.17034 19.3077C9.83035 19.3077 10.3654 18.7911 10.3654 18.1538C10.3654 17.5166 9.83035 17 9.17034 17C8.51033 17 7.97528 17.5166 7.97528 18.1538C7.97528 18.7911 8.51033 19.3077 9.17034 19.3077Z" stroke="#0082CA" stroke-width="3" stroke-linecap="round" stroke-linejoin="round"/>
<path d="M17.5357 19.3077C18.1957 19.3077 18.7307 18.7911 18.7307 18.1538C18.7307 17.5166 18.1957 17 17.5357 17C16.8757 17 16.3406 17.5166 16.3406 18.1538C16.3406 18.7911 16.8757 19.3077 17.5357 19.3077Z" stroke="#0082CA" stroke-width="3" stroke-linecap="round" stroke-linejoin="round"/>
<path d="M25.9011 19.3077C26.5611 19.3077 27.0962 18.7911 27.0962 18.1538C27.0962 17.5166 26.5611 17 25.9011 17C25.2411 17 24.7061 17.5166 24.7061 18.1538C24.7061 18.7911 25.2411 19.3077 25.9011 19.3077Z" stroke="#0082CA" stroke-width="3" stroke-linecap="round" stroke-linejoin="round"/>
<path d="M9.17034 26.2308C9.83035 26.2308 10.3654 25.7142 10.3654 25.0769C10.3654 24.4397 9.83035 23.9231 9.17034 23.9231C8.51033 23.9231 7.97528 24.4397 7.97528 25.0769C7.97528 25.7142 8.51033 26.2308 9.17034 26.2308Z" stroke="#0082CA" stroke-width="3" stroke-linecap="round" stroke-linejoin="round"/>
</svg>
