<svg width="37" height="34" viewBox="0 0 37 34" fill="none" xmlns="http://www.w3.org/2000/svg">
<path d="M13.25 13.25C16.3566 13.25 18.875 10.7316 18.875 7.625C18.875 4.5184 16.3566 2 13.25 2C10.1434 2 7.625 4.5184 7.625 7.625C7.625 10.7316 10.1434 13.25 13.25 13.25Z" stroke="#0082CA" stroke-width="3.42857" stroke-linecap="round" stroke-linejoin="round"/>
<path d="M24.5 32H2V29.5C2 26.5163 3.18526 23.6548 5.29505 21.545C7.40483 19.4353 10.2663 18.25 13.25 18.25C16.2337 18.25 19.0952 19.4353 21.205 21.545C23.3147 23.6548 24.5 26.5163 24.5 29.5V32Z" stroke="#0082CA" stroke-width="3.42857" stroke-linecap="round" stroke-linejoin="round"/>
<path d="M23.25 2C24.7418 2 26.1726 2.59263 27.2275 3.64752C28.2824 4.70242 28.875 6.13316 28.875 7.625C28.875 9.11684 28.2824 10.5476 27.2275 11.6025C26.1726 12.6574 24.7418 13.25 23.25 13.25" stroke="#0082CA" stroke-width="3.42857" stroke-linecap="round" stroke-linejoin="round"/>
<path d="M27.25 18.725C29.3796 19.5351 31.213 20.9728 32.5076 22.8477C33.8022 24.7227 34.497 26.9465 34.5 29.225V32H30.75" stroke="#0082CA" stroke-width="3.42857" stroke-linecap="round" stroke-linejoin="round"/>
</svg>
