<svg display="none" viewBox="0 0 30 30" xmlns="http://www.w3.org/2000/svg">
  <symbol viewBox="0 0 27 34" fill="none" id="projects">
    <g>
      <path d="M19.3077 4.30771H22.7692C23.3813 4.30771 23.9682 4.55084 24.401 4.98362C24.8338 5.41639 25.0769 6.00336 25.0769 6.6154V29.6923C25.0769 30.3044 24.8338 30.8913 24.401 31.3241C23.9682 31.7569 23.3813 32 22.7692 32H4.30769C3.69565 32 3.10868 31.7569 2.67591 31.3241C2.24313 30.8913 2 30.3044 2 29.6923V6.6154C2 6.00336 2.24313 5.41639 2.67591 4.98362C3.10868 4.55084 3.69565 4.30771 4.30769 4.30771H7.76923" stroke-width="3" stroke-linecap="round" stroke-linejoin="round"/>
      <path d="M17 2H10.0769C8.80242 2 7.76923 3.03319 7.76923 4.30769V5.46154C7.76923 6.73604 8.80242 7.76923 10.0769 7.76923H17C18.2745 7.76923 19.3077 6.73604 19.3077 5.46154V4.30769C19.3077 3.03319 18.2745 2 17 2Z" stroke-width="3" stroke-linecap="round" stroke-linejoin="round"/>
      <path d="M7.76923 13.5385H19.3077" stroke-width="3" stroke-linecap="round" stroke-linejoin="round"/>
      <path d="M7.76923 19.3077H19.3077" stroke-width="3" stroke-linecap="round" stroke-linejoin="round"/>
      <path d="M7.76923 25.0769H19.3077" stroke-width="3" stroke-linecap="round" stroke-linejoin="round"/>
    </g>
  </symbol>

  <symbol viewBox="0 0 37 34" fill="none" id="candidates">
    <g>
      <path d="M13.25 13.25C16.3566 13.25 18.875 10.7316 18.875 7.625C18.875 4.5184 16.3566 2 13.25 2C10.1434 2 7.625 4.5184 7.625 7.625C7.625 10.7316 10.1434 13.25 13.25 13.25Z" stroke-width="3" stroke-linecap="round" stroke-linejoin="round"/>
      <path d="M24.5 32H2V29.5C2 26.5163 3.18526 23.6548 5.29505 21.545C7.40483 19.4353 10.2663 18.25 13.25 18.25C16.2337 18.25 19.0952 19.4353 21.205 21.545C23.3147 23.6548 24.5 26.5163 24.5 29.5V32Z" stroke-width="3" stroke-linecap="round" stroke-linejoin="round"/>
      <path d="M23.25 2C24.7418 2 26.1726 2.59263 27.2275 3.64752C28.2824 4.70242 28.875 6.13316 28.875 7.625C28.875 9.11684 28.2824 10.5476 27.2275 11.6025C26.1726 12.6574 24.7418 13.25 23.25 13.25" stroke-width="3" stroke-linecap="round" stroke-linejoin="round"/>
      <path d="M27.25 18.725C29.3796 19.5351 31.213 20.9728 32.5076 22.8477C33.8022 24.7227 34.497 26.9465 34.5 29.225V32H30.75" stroke-width="3" stroke-linecap="round" stroke-linejoin="round"/>
    </g>
  </symbol>

  <symbol viewBox="0 0 35 34" fill="none" id="calendar">
    <g>
      <path d="M4.39011 6.61539C3.75621 6.61539 3.14828 6.85852 2.70005 7.29129C2.25181 7.72407 2 8.31104 2 8.92308V29.6923C2 30.3044 2.25181 30.8913 2.70005 31.3241C3.14828 31.7569 3.75621 32 4.39011 32H30.6813C31.3152 32 31.9231 31.7569 32.3714 31.3241C32.8196 30.8913 33.0714 30.3044 33.0714 29.6923V8.92308C33.0714 8.31104 32.8196 7.72407 32.3714 7.29129C31.9231 6.85852 31.3152 6.61539 30.6813 6.61539H25.9011" stroke-width="3" stroke-linecap="round" stroke-linejoin="round"/>
      <path d="M9.17035 2V11.2308" stroke-width="3" stroke-linecap="round" stroke-linejoin="round"/>
      <path d="M25.9011 2V11.2308" stroke-width="3" stroke-linecap="round" stroke-linejoin="round"/>
      <path d="M9.17035 6.61539H21.1209" stroke-width="3" stroke-linecap="round" stroke-linejoin="round"/>
      <path d="M9.17034 19.3077C9.83035 19.3077 10.3654 18.7911 10.3654 18.1538C10.3654 17.5166 9.83035 17 9.17034 17C8.51033 17 7.97528 17.5166 7.97528 18.1538C7.97528 18.7911 8.51033 19.3077 9.17034 19.3077Z" stroke-width="3" stroke-linecap="round" stroke-linejoin="round"/>
      <path d="M17.5357 19.3077C18.1957 19.3077 18.7307 18.7911 18.7307 18.1538C18.7307 17.5166 18.1957 17 17.5357 17C16.8757 17 16.3406 17.5166 16.3406 18.1538C16.3406 18.7911 16.8757 19.3077 17.5357 19.3077Z" stroke-width="3" stroke-linecap="round" stroke-linejoin="round"/>
      <path d="M25.9011 19.3077C26.5611 19.3077 27.0962 18.7911 27.0962 18.1538C27.0962 17.5166 26.5611 17 25.9011 17C25.2411 17 24.7061 17.5166 24.7061 18.1538C24.7061 18.7911 25.2411 19.3077 25.9011 19.3077Z" stroke-width="3" stroke-linecap="round" stroke-linejoin="round"/>
      <path d="M9.17034 26.2308C9.83035 26.2308 10.3654 25.7142 10.3654 25.0769C10.3654 24.4397 9.83035 23.9231 9.17034 23.9231C8.51033 23.9231 7.97528 24.4397 7.97528 25.0769C7.97528 25.7142 8.51033 26.2308 9.17034 26.2308Z" stroke-width="3" stroke-linecap="round" stroke-linejoin="round"/>
    </g>
  </symbol>

  <symbol viewBox="0 0 18 22" fill="none" id="logout">
    <g>
      <path d="M16.5555 11L13.2222 7.66669M8.77777 11H16.5555H8.77777ZM16.5555 11L13.2222 14.3334L16.5555 11Z" stroke-width="2" stroke-linecap="round" stroke-linejoin="round"/>
      <path d="M16.5556 4.33333V3.22222C16.5556 1.99492 15.5607 1 14.3333 1H3.22222C1.99492 1 1 1.99492 1 3.22222V18.7778C1 20.0051 1.99492 21 3.22222 21H14.3333C15.5607 21 16.5556 20.0051 16.5556 18.7778V17.6667" stroke-width="2" stroke-linecap="round" stroke-linejoin="round"/>
    </g>
  </symbol>
</svg>

