<svg width="27" height="34" viewBox="0 0 27 34" fill="none" xmlns="http://www.w3.org/2000/svg">
<path d="M19.3077 4.30771H22.7692C23.3813 4.30771 23.9682 4.55084 24.401 4.98362C24.8338 5.41639 25.0769 6.00336 25.0769 6.6154V29.6923C25.0769 30.3044 24.8338 30.8913 24.401 31.3241C23.9682 31.7569 23.3813 32 22.7692 32H4.30769C3.69565 32 3.10868 31.7569 2.67591 31.3241C2.24313 30.8913 2 30.3044 2 29.6923V6.6154C2 6.00336 2.24313 5.41639 2.67591 4.98362C3.10868 4.55084 3.69565 4.30771 4.30769 4.30771H7.76923" stroke="#0082CA" stroke-width="3" stroke-linecap="round" stroke-linejoin="round"/>
<path d="M17 2H10.0769C8.80242 2 7.76923 3.03319 7.76923 4.30769V5.46154C7.76923 6.73604 8.80242 7.76923 10.0769 7.76923H17C18.2745 7.76923 19.3077 6.73604 19.3077 5.46154V4.30769C19.3077 3.03319 18.2745 2 17 2Z" stroke="#0082CA" stroke-width="3" stroke-linecap="round" stroke-linejoin="round"/>
<path d="M7.76923 13.5385H19.3077" stroke="#0082CA" stroke-width="3" stroke-linecap="round" stroke-linejoin="round"/>
<path d="M7.76923 19.3077H19.3077" stroke="#0082CA" stroke-width="3" stroke-linecap="round" stroke-linejoin="round"/>
<path d="M7.76923 25.0769H19.3077" stroke="#0082CA" stroke-width="3" stroke-linecap="round" stroke-linejoin="round"/>
</svg>
